<?xml version="1.0" encoding="iso-8859-1"?>
<!-- Generator: Adobe Illustrator 18.1.1, SVG Export Plug-In . SVG Version: 6.00 Build 0)  -->
<svg version="1.1" id="Capa_1" xmlns="http://www.w3.org/2000/svg" xmlns:xlink="http://www.w3.org/1999/xlink" x="0px" y="0px"
	 viewBox="0 0 19.524 19.524" style="enable-background:new 0 0 19.524 19.524;" xml:space="preserve">
<g>
	<path style="fill:#030104;" d="M19.29,2.359c-0.512-0.332-0.982-0.506-1.538-0.564c-0.454-0.037-0.873,0.037-1.246,0.215
		c-0.379,0.179-0.699,0.461-0.961,0.849c-0.295,0.459-0.453,0.937-0.511,1.549c-0.005,0.042-0.001,0.084,0.005,0.125
		c-0.901,0.206-1.785,0.509-2.634,0.879c0.166-0.171,0.314-0.355,0.444-0.568c0.231-0.394,0.347-0.806,0.343-1.221
		c0-0.417-0.116-0.827-0.352-1.23c-0.287-0.465-0.648-0.814-1.17-1.131c-0.163-0.099-0.367-0.099-0.53,0
		c-0.522,0.317-0.882,0.666-1.175,1.142C9.735,2.797,9.619,3.206,9.619,3.62C9.616,4.038,9.731,4.45,9.967,4.853
		c0.285,0.466,0.647,0.814,1.174,1.132c0.015,0.009,0.03,0.013,0.045,0.021C10.28,6.481,9.414,7.025,8.59,7.626
		c0.046-0.184,0.072-0.369,0.071-0.557c0-0.416-0.116-0.827-0.352-1.23c-0.287-0.465-0.648-0.813-1.17-1.131
		c-0.163-0.099-0.367-0.099-0.53,0C6.088,5.025,5.727,5.374,5.434,5.85c-0.23,0.392-0.346,0.803-0.346,1.215
		C5.085,7.484,5.2,7.895,5.436,8.299C5.7,8.729,6.035,9.057,6.498,9.356c-0.485,0.447-0.959,0.907-1.412,1.386
		c0-0.012,0.002-0.023,0.002-0.035c0-0.417-0.116-0.826-0.352-1.23C4.449,9.012,4.088,8.663,3.567,8.346
		c-0.163-0.099-0.368-0.099-0.53,0C2.515,8.662,2.154,9.012,1.861,9.488c-0.229,0.394-0.346,0.803-0.346,1.217
		c-0.003,0.417,0.112,0.83,0.348,1.234c0.286,0.465,0.648,0.813,1.175,1.131c0.019,0.012,0.04,0.018,0.06,0.027
		c-0.024,0.031-0.052,0.063-0.077,0.096C1.826,14.789,0.763,16.492,0,18.336c1.299-1.504,2.597-2.961,3.931-4.375
		c0.181-0.184,0.36-0.369,0.54-0.555c0.122,0.451,0.306,0.828,0.587,1.186c0.29,0.352,0.637,0.602,1.027,0.742
		c0.391,0.145,0.816,0.176,1.276,0.094c0.536-0.109,0.988-0.326,1.465-0.707c0.148-0.121,0.219-0.311,0.183-0.498
		c-0.118-0.6-0.321-1.059-0.666-1.498c-0.29-0.352-0.635-0.602-1.023-0.744c-0.392-0.148-0.817-0.182-1.278-0.098
		c-0.023,0.004-0.044,0.012-0.067,0.018c0.692-0.67,1.394-1.33,2.131-1.944c0.058-0.05,0.118-0.098,0.177-0.147
		C8.26,9.888,8.251,9.971,8.268,10.054c0.117,0.604,0.319,1.064,0.665,1.501c0.291,0.352,0.637,0.602,1.027,0.742
		c0.392,0.145,0.816,0.176,1.276,0.094c0.536-0.109,0.987-0.326,1.466-0.707c0.147-0.119,0.219-0.311,0.183-0.498
		c-0.118-0.599-0.321-1.059-0.666-1.499c-0.29-0.351-0.636-0.601-1.022-0.744c-0.393-0.146-0.818-0.18-1.278-0.097
		C9.626,8.904,9.358,9,9.096,9.135c0.884-0.714,1.797-1.385,2.748-2.003c-0.01,0.059-0.013,0.118-0.001,0.179
		c0.116,0.604,0.319,1.063,0.665,1.501c0.289,0.353,0.637,0.603,1.027,0.742c0.391,0.144,0.816,0.176,1.276,0.095
		c0.535-0.109,0.987-0.328,1.465-0.708c0.148-0.12,0.22-0.312,0.184-0.499c-0.119-0.599-0.322-1.058-0.667-1.497
		c-0.289-0.351-0.635-0.601-1.022-0.744c-0.363-0.137-0.757-0.17-1.179-0.11c0.662-0.358,1.343-0.688,2.045-0.986
		c0.377,0.196,0.749,0.308,1.168,0.351c0.455,0.037,0.876-0.038,1.248-0.222c0.376-0.181,0.694-0.463,0.956-0.85
		c0.295-0.461,0.453-0.937,0.513-1.544C19.538,2.648,19.45,2.463,19.29,2.359z"/>
</g>
<g>
</g>
<g>
</g>
<g>
</g>
<g>
</g>
<g>
</g>
<g>
</g>
<g>
</g>
<g>
</g>
<g>
</g>
<g>
</g>
<g>
</g>
<g>
</g>
<g>
</g>
<g>
</g>
<g>
</g>
</svg>
